# xmcd CD database file
#
# Track frame offsets:
#	150
#	14345
#	39886
#	53971
#	83695
#
# Disc length: 1294 seconds
#
# Revision: 0
# Processed by: cddbd v1.5.2PL0 Copyright (c) Steve Scherf et al.
# Submitted via: CDex 1.70beta2
#
DISCID=2f050c05
DTITLE=Ernst Glerum and Uri Caine - Sentimental Mood
DYEAR=2014
DGENRE=Jazz
TTITLE0=Black and Tan Fantasy
TTITLE1=I Surrender, Dear
TTITLE2=Evidence
TTITLE3=In a Sentimental Mood
TTITLE4=Yesterdays
EXTD=YEAR: 2014
EXTT0=
EXTT1=
EXTT2=
EXTT3=
EXTT4=
PLAYORDER=
